<?xml version="1.0" ?><!DOCTYPE svg  PUBLIC '-//W3C//DTD SVG 1.0//EN'  'http://www.w3.org/TR/2001/REC-SVG-20010904/DTD/svg10.dtd'><svg enable-background="new 0 0 32 32" height="32px" id="Layer_1" version="1.0" viewBox="0 0 32 32" width="32px" xml:space="preserve" xmlns="http://www.w3.org/2000/svg" xmlns:xlink="http://www.w3.org/1999/xlink"><path d="M28.307,0H3.692C1.656,0,0,1.656,0,3.692v24.615C0,30.344,1.656,32,3.692,32h24.615C30.344,32,32,30.344,32,28.308V3.692  C32,1.656,30.344,0,28.307,0z M29.538,28.308c0,0.679-0.552,1.231-1.231,1.231H3.692c-0.678,0-1.231-0.553-1.231-1.231V3.692  c0-0.679,0.553-1.231,1.231-1.231h24.615c0.679,0,1.231,0.553,1.231,1.231V28.308z M20.562,8.255L12.817,16l7.745,7.746  c0.48,0.48,0.48,1.259,0,1.739c-0.481,0.481-1.26,0.481-1.741,0l-8.615-8.615c-0.481-0.48-0.481-1.26,0-1.74l8.615-8.615  c0.48-0.481,1.259-0.481,1.741,0c0.24,0.24,0.36,0.555,0.36,0.87C20.922,7.699,20.802,8.015,20.562,8.255z"/></svg>