<?xml version="1.0" ?><!DOCTYPE svg  PUBLIC '-//W3C//DTD SVG 1.0//EN'  'http://www.w3.org/TR/2001/REC-SVG-20010904/DTD/svg10.dtd'><svg enable-background="new 0 0 32 32" height="32px" id="Layer_1" version="1.0" viewBox="0 0 32 32" width="32px" xml:space="preserve" xmlns="http://www.w3.org/2000/svg" xmlns:xlink="http://www.w3.org/1999/xlink"><path d="M28.308,0H3.693C1.656,0,0,1.656,0,3.692v24.615C0,30.344,1.656,32,3.693,32h24.615C30.344,32,32,30.344,32,28.307V3.692  C32,1.656,30.344,0,28.308,0z M29.539,28.307c0,0.68-0.552,1.231-1.23,1.231H3.693c-0.68,0-1.231-0.551-1.231-1.231V3.692  c0-0.679,0.552-1.23,1.231-1.23h24.615c0.679,0,1.23,0.552,1.23,1.23V28.307z M25.485,18.822c0.481,0.48,0.481,1.259,0,1.74  c-0.24,0.24-0.555,0.36-0.869,0.36s-0.631-0.12-0.871-0.36L16,12.817l-7.745,7.745c-0.481,0.481-1.259,0.481-1.74,0  c-0.481-0.481-0.481-1.26,0-1.74l8.615-8.616c0.48-0.48,1.26-0.48,1.74,0L25.485,18.822z"/></svg>